<?xml version="1.0" encoding="UTF-8"?>
<svg version="1.1" xmlns="http://www.w3.org/2000/svg" width="887" height="947">
<path d="M0 0 C1.21494141 0.16628906 2.42988281 0.33257812 3.68164062 0.50390625 C68.16280012 9.59524466 130.54974168 33.73623634 184 71 C184.5868457 71.40814941 185.17369141 71.81629883 185.77832031 72.23681641 C202.76718797 84.10124905 218.69777256 97.03047044 234 111 C234.92167969 111.82886719 235.84335937 112.65773438 236.79296875 113.51171875 C247.4049355 123.11435709 257.77931329 133.03806773 267 144 C267.8971028 145.03501253 268.79568275 146.06874562 269.6953125 147.1015625 C332.05930346 218.87956089 370.80936875 307.67085934 384.1875 401.5625 C384.34250977 402.63588623 384.49751953 403.70927246 384.65722656 404.81518555 C387.61180119 426.65747388 388.37764296 448.47941468 388.3125 470.5 C388.31034485 471.81727081 388.3081897 473.13454163 388.30596924 474.49172974 C388.26164761 494.49695225 387.80078544 514.16915137 385 534 C384.84727631 535.09006348 384.84727631 535.09006348 384.69146729 536.20214844 C377.58987736 586.55331256 364.10955935 634.7135796 343 681 C342.63729004 681.80904785 342.27458008 682.6180957 341.90087891 683.45166016 C324.40049854 722.42578272 300.08360043 758.87730307 272 791 C271.39285156 791.70640625 270.78570313 792.4128125 270.16015625 793.140625 C268.45833011 795.11073903 266.73418061 797.0583106 265 799 C264.27296875 799.81984375 263.5459375 800.6396875 262.796875 801.484375 C256.82396244 808.11687299 250.61362728 814.49126274 244.3125 820.8125 C243.51682617 821.61276611 242.72115234 822.41303223 241.90136719 823.23754883 C237.09501206 828.0314238 232.15366906 832.58403579 227 837 C225.95174755 837.92552557 224.90479512 838.85252639 223.859375 839.78125 C152.54204654 902.45128089 55.32769933 943.79945033 -40.24609375 944.203125 C-41.36763351 944.21013931 -42.48917328 944.21715363 -43.6446991 944.22438049 C-47.24234082 944.24177452 -50.83981778 944.24823252 -54.4375 944.25 C-55.66853455 944.25067474 -56.89956909 944.25134949 -58.16790771 944.25204468 C-76.6452494 944.23595336 -94.70240129 943.75821369 -113 941 C-114.73733398 940.75056641 -114.73733398 940.75056641 -116.50976562 940.49609375 C-155.88880147 934.72705431 -193.73064489 923.34692002 -230 907 C-230.92071289 906.58782227 -231.84142578 906.17564453 -232.79003906 905.75097656 C-252.01803594 897.07706012 -270.5049511 886.7874443 -288 875 C-288.61327148 874.59104492 -289.22654297 874.18208984 -289.85839844 873.76074219 C-308.1745487 861.52853145 -325.35527738 847.9718088 -341.63671875 833.14453125 C-343.1474549 831.77363184 -344.66990601 830.41546254 -346.20703125 829.07421875 C-352.08854453 823.91411766 -357.64674412 818.4597343 -363.1875 812.9375 C-363.94804687 812.18154541 -364.70859375 811.42559082 -365.4921875 810.64672852 C-370.20021063 805.92586719 -374.6637481 801.06260558 -379 796 C-379.94947074 794.91704718 -380.89994034 793.83496904 -381.8515625 792.75390625 C-409.24955557 761.34490171 -431.24406944 726.11986681 -450 689 C-450.40460449 688.20158691 -450.80920898 687.40317383 -451.22607422 686.58056641 C-474.30351432 640.63234986 -487.9578999 590.17694951 -495.1875 539.4375 C-495.34250977 538.36411377 -495.49751953 537.29072754 -495.65722656 536.18481445 C-498.56640682 514.6781131 -499.37598713 493.18281634 -499.3125 471.5 C-499.31026428 469.60010818 -499.31026428 469.60010818 -499.3079834 467.66183472 C-499.26635053 447.9267672 -498.58290022 428.57214906 -496 409 C-495.79117187 407.31197266 -495.79117187 407.31197266 -495.578125 405.58984375 C-487.19328786 338.58878403 -465.06714904 272.79196817 -430 215 C-429.50790039 214.18885742 -429.01580078 213.37771484 -428.50878906 212.54199219 C-418.61740948 196.35668336 -407.79073908 180.85880273 -396 166 C-395.50387207 165.3723877 -395.00774414 164.74477539 -394.49658203 164.09814453 C-387.84025017 155.70448752 -380.97138808 147.61319961 -373.62890625 139.8125 C-371.54432398 137.58233769 -369.53573712 135.32715925 -367.5625 133 C-360.67117546 125.04457388 -353.0325151 117.54057886 -345.01171875 110.73046875 C-342.51716397 108.58466726 -340.10781018 106.35414323 -337.6875 104.125 C-320.8092349 88.78739397 -302.23743246 75.22201338 -283 63 C-281.88117432 62.2879541 -281.88117432 62.2879541 -280.73974609 61.56152344 C-229.17365053 29.0455331 -171.33727234 8.25836407 -111 0 C-109.83404297 -0.16371094 -108.66808594 -0.32742188 -107.46679688 -0.49609375 C-72.22977408 -5.23614907 -35.19109202 -4.94114835 0 0 Z " fill="#2A5DAA" transform="translate(499,3)"/>
<path d="M0 0 C6.08637115 4.56131823 11.65353511 9.58364601 17.06542969 14.92016602 C18.3609375 16.19633789 18.3609375 16.19633789 19.68261719 17.49829102 C28.87417852 27.06209626 35.76954663 38.1739421 40.94042969 50.35766602 C41.20235107 50.96368652 41.46427246 51.56970703 41.73413086 52.1940918 C47.56161507 66.81795496 48.63787203 81.04990167 48.37792969 96.60766602 C48.36639776 98.40648368 48.35662474 100.20531351 48.34863281 102.00415039 C48.33523124 103.73007477 48.32031456 105.45598822 48.30371094 107.18188477 C48.29632401 107.9725383 48.28893707 108.76319183 48.28132629 109.57780457 C48.20872729 113.79455627 47.85360803 117.76319208 47.06542969 121.92016602 C46.20856778 133.50427993 49.68343557 140.24261169 57.06542969 148.92016602 C65.67496405 158.83129927 74.90445407 167.79366252 85.16235352 175.99902344 C90.71854503 180.54059189 95.79822482 185.40974819 100.82714844 190.52172852 C102.14039848 191.84278091 102.14039848 191.84278091 103.48017883 193.19052124 C106.24265034 195.9706046 108.99825981 198.75735397 111.75292969 201.54516602 C114.519199 204.33921154 117.28699196 207.13170476 120.05781555 209.92123413 C121.77143151 211.64694336 123.48236998 213.37531711 125.19010925 215.10684204 C129.44112259 219.39323389 133.7713336 223.49617742 138.34992981 227.43075562 C140.41974184 229.22778259 142.36434289 231.12061974 144.28417969 233.07641602 C144.98929687 233.78926758 145.69441406 234.50211914 146.42089844 235.23657227 C147.85058594 236.69230143 149.28027344 238.1480306 150.70996094 239.60375977 C154.75760681 243.69580395 158.88884991 247.60299321 163.25244141 251.35668945 C165.67820438 253.44860786 168.0252053 255.62173167 170.37792969 257.79516602 C173.97934139 261.0844884 177.63850244 264.24034237 181.44042969 267.29516602 C186.23683679 271.16235465 190.73584429 275.26997317 195.22900391 279.47827148 C198.57624753 282.59555937 201.99538874 285.55583084 205.56542969 288.42016602 C210.96772764 292.75777751 216.01138584 297.41958197 221.07324219 302.14282227 C223.98380844 304.85663061 226.96554961 307.47756358 229.97558594 310.08032227 C232.70913528 312.48686757 235.38656975 314.95319798 238.06542969 317.42016602 C241.97866527 321.02349029 245.92977492 324.57191821 249.95214844 328.05297852 C252.10938755 329.95900494 254.22350012 331.9079929 256.33447266 333.86499023 C260.60172379 337.81904862 264.89717305 341.65520783 269.44042969 345.29516602 C275.17002619 349.90537681 280.49537686 354.89570272 285.85449219 359.92407227 C288.23902453 362.15931335 290.65305029 364.34716881 293.12792969 366.48266602 C297.22204587 370.01570418 301.17477888 373.69604022 305.14111328 377.37084961 C310.07227222 381.93642016 315.05942411 386.43681029 320.06542969 390.92016602 C321.73248669 392.4197322 323.39914964 393.91973655 325.06542969 395.42016602 C325.88785156 396.16008789 326.71027344 396.90000977 327.55761719 397.66235352 C329.25135863 399.18724846 330.94404138 400.71332003 332.63574219 402.24047852 C336.40280084 405.63889534 340.17458555 409.02833211 344.00292969 412.35766602 C348.19707333 416.00953654 352.29637261 419.76282786 356.40527344 423.51000977 C359.25298764 426.09009738 362.13786986 428.62218457 365.03808594 431.14282227 C368.27011597 433.97629754 371.45185536 436.86524902 374.63964844 439.74829102 C376.69457483 441.58812849 378.77715394 443.38340096 380.87792969 445.17016602 C388.28201378 451.62616617 395.40842205 458.66801125 401.75292969 466.17016602 C407.45294151 472.83415043 414.14018169 478.3083352 421.19042969 483.48266602 C434.72235982 493.5364402 444.06776533 506.07694429 447.06542969 522.92016602 C447.27995861 526.68902452 447.25054233 530.45825833 447.25292969 534.23266602 C447.26517578 535.24006836 447.27742187 536.2474707 447.29003906 537.28540039 C447.32102871 553.14177216 441.25884589 567.87870679 431.06542969 579.92016602 C430.47246094 580.6252832 429.87949219 581.33040039 429.26855469 582.05688477 C418.57576405 593.68643698 402.53692013 602.2134281 386.7199707 603.04321289 C366.09526935 603.69212436 366.09526935 603.69212436 357.06542969 599.92016602 C356.08574219 599.51797852 355.10605469 599.11579102 354.09667969 598.70141602 C340.69129923 592.60806126 330.85835508 580.87305216 320.59643555 570.58154297 C318.37563662 568.35536739 316.14952002 566.1346097 313.92285156 563.91430664 C312.48698384 562.47777831 311.05142626 561.0409399 309.61621094 559.60375977 C308.96187576 558.95144882 308.30754059 558.29913788 307.63337708 557.62705994 C303.84477413 553.81943696 300.2634231 549.89254084 296.75187683 545.82899475 C294.1944148 542.93429566 291.47331826 540.22267407 288.72167969 537.51391602 C288.14889282 536.94491577 287.57610596 536.37591553 286.98596191 535.78967285 C285.18157718 533.9973362 283.37395609 532.20832285 281.56542969 530.42016602 C268.24938206 517.254098 268.24938206 517.254098 264.59667969 512.95141602 C259.16781168 506.56490918 253.019816 500.81006439 247.06542969 494.92016602 C233.04134214 481.0479639 233.04134214 481.0479639 227.81933594 474.89672852 C223.79490464 470.36140059 219.38205489 466.17603443 215.06542969 461.92016602 C209.42400518 456.35814493 203.8284886 450.80834917 198.67480469 444.78344727 C195.90177979 441.57293057 192.97475483 438.50674166 190.06542969 435.42016602 C185.91924205 431.00096054 181.82555537 426.55907096 177.86621094 421.97094727 C168.90618237 411.76701018 159.44582714 401.98644817 150.12988281 392.10961914 C147.4365839 389.25324442 144.74593007 386.3943873 142.05566406 383.53515625 C140.72916603 382.12550801 139.4023432 380.71616534 138.07519531 379.30712891 C134.68590613 375.70829136 131.30134635 372.1051879 127.92480469 368.49438477 C121.00907142 361.10762603 114.05084784 353.79997213 106.81152344 346.72875977 C104.70986782 344.5792713 102.74444351 342.41840164 100.78808594 340.14282227 C96.77111055 335.50440005 92.43876501 331.22012323 88.06542969 326.92016602 C83.03396544 321.97312231 78.15776634 316.98771788 73.55761719 311.63500977 C71.81499245 309.63235987 69.97483464 307.76372941 68.06542969 305.92016602 C64.81904193 302.72372269 61.82471264 299.38692808 58.85839844 295.93188477 C56.30713582 293.06935699 53.56878031 290.4116282 50.83496094 287.72485352 C49.06542969 285.92016602 49.06542969 285.92016602 47.06542969 283.35766602 C44.72778791 280.5086651 42.12462224 278.25444875 39.32714844 275.86547852 C36.92759148 273.80161087 34.59077546 271.67858966 32.25292969 269.54516602 C28.7353215 266.36256814 25.13795918 263.32898639 21.44042969 260.35766602 C17.4045555 257.09618225 13.76023105 253.66684905 10.15136719 249.94750977 C6.90685422 246.7941348 3.36943255 244.02586831 -0.16113281 241.20141602 C-2.774062 239.05218975 -5.22464301 236.80366054 -7.68457031 234.48266602 C-11.74904018 230.78828366 -16.01686226 227.61357518 -20.55957031 224.54516602 C-21.47367676 223.91976929 -21.47367676 223.91976929 -22.40625 223.28173828 C-29.36440472 218.69687142 -35.36212545 216.50288988 -43.80957031 216.67016602 C-45.75476563 216.69336914 -45.75476563 216.69336914 -47.73925781 216.71704102 C-50.6991839 216.82219999 -53.60936576 217.09033989 -56.55175781 217.42407227 C-63.09002369 218.11303469 -69.61578122 218.1042412 -76.18457031 218.10766602 C-77.4053125 218.11991211 -78.62605469 218.1321582 -79.88378906 218.14477539 C-110.13973286 218.1928007 -136.47258538 208.17510963 -158.93457031 187.92016602 C-161.4090809 185.35849067 -163.6693909 182.66600545 -165.93457031 179.92016602 C-166.48371094 179.33106445 -167.03285156 178.74196289 -167.59863281 178.13500977 C-178.96003315 165.91761351 -186.92115441 150.42629919 -192.24707031 134.73266602 C-192.48965576 134.02078125 -192.73224121 133.30889648 -192.98217773 132.57543945 C-199.59651916 112.12218432 -200.85706504 83.92017633 -191.93457031 63.92016602 C-190.34790039 62.18066406 -190.34790039 62.18066406 -188.93457031 60.92016602 C-187.55785156 62.31428711 -187.55785156 62.31428711 -186.15332031 63.73657227 C-177.84208184 72.13095165 -177.84208184 72.13095165 -169.05566406 80.01782227 C-165.45642665 83.24586761 -162.10788821 86.72790311 -158.70947266 90.16479492 C-155.88700642 93.00689002 -153.05873299 95.77006724 -149.99707031 98.35766602 C-146.09177607 101.6659726 -142.53251488 105.28593094 -138.93457031 108.92016602 C-124.8960414 123.97070775 -124.8960414 123.97070775 -106.18457031 130.23266602 C-99.35765899 130.14244252 -94.72537034 127.7391693 -89.89160156 123.02954102 C-85.42290736 119.14015499 -80.37497436 117.59595587 -74.80957031 115.79516602 C-63.83714824 112.18600737 -57.74055626 108.14125336 -51.93457031 97.92016602 C-46.0999159 85.0529287 -41.90599371 70.59465732 -45.88769531 56.56079102 C-49.644467 48.39952838 -55.68676806 42.2116592 -61.93457031 35.92016602 C-63.08505859 34.71360352 -63.08505859 34.71360352 -64.25878906 33.48266602 C-68.91407822 28.66857884 -73.88009683 24.42964266 -79.10253906 20.24438477 C-82.99371065 17.0509405 -86.68526437 13.66164517 -90.37988281 10.24438477 C-92.53510863 8.28359064 -94.73806435 6.44480942 -96.99707031 4.60766602 C-100.56283665 1.51438217 -103.42555123 -1.98895613 -106.30957031 -5.70483398 C-106.95357788 -6.53108276 -106.95357788 -6.53108276 -107.6105957 -7.37402344 C-109.95124459 -10.47572213 -111.68833783 -13.39591599 -112.93457031 -17.07983398 C-80.03849611 -39.07505223 -28.84246851 -20.92247821 0 0 Z " fill="#F79D22" transform="translate(309.9345703125,185.079833984375)"/>
<path d="M0 0 C3.21128978 1.44449745 5.39517412 3.81918447 7.82000732 6.30215454 C8.37344818 6.85676361 8.92688904 7.41137268 9.49710083 7.98278809 C11.32696343 9.81984277 13.14607224 11.66718679 14.96551514 13.51455688 C16.2402765 14.79745934 17.51578023 16.07962454 18.79199219 17.36108398 C22.15568194 20.7419073 25.51072032 24.1311818 28.86358643 27.5227356 C34.21337124 32.93162703 39.57566186 38.32810998 44.93881989 43.72373581 C46.80264758 45.60140805 48.66253194 47.48291528 50.52185059 49.36505127 C56.22725513 55.12675898 61.94577167 60.76482807 68.16864014 65.97549438 C69.53916699 67.18639248 70.89911916 68.40986304 72.23114014 69.66299438 C73.11479248 70.47317017 73.11479248 70.47317017 74.01629639 71.29971313 C75.16864014 72.97549438 75.16864014 72.97549438 75.15692139 74.81143188 C73.7244268 77.9481987 71.55540966 80.35263126 69.29364014 82.91299438 C68.28827704 84.07562099 67.28307318 85.23838531 66.27801514 86.40127563 C65.76174561 86.99376099 65.24547607 87.58624634 64.71356201 88.19668579 C62.29880615 90.9770131 59.92068439 93.78792571 57.54364014 96.60049438 C57.08553955 97.14117554 56.62743896 97.68185669 56.15545654 98.23892212 C52.54702581 102.50536081 49.00867117 106.82622542 45.48504639 111.16299438 C43.36263401 113.73995376 41.20423992 116.27947378 39.0302124 118.81265259 C33.74943635 124.97883906 28.71211741 131.23493655 24.16864014 137.97549438 C23.70199951 138.62518188 23.23535889 139.27486938 22.75457764 139.94424438 C18.5367957 146.7156494 20.42457921 154.43516501 21.43572998 161.96426392 C25.43777232 193.91499536 19.72237069 226.1775209 1.13348389 252.90127563 C-0.77650405 255.34287055 -2.76552007 257.66496288 -4.83135986 259.97549438 C-5.50553955 260.77986938 -6.17971924 261.58424438 -6.87432861 262.41299438 C-25.97862979 284.68394658 -52.88556829 298.78840941 -81.83135986 302.97549438 C-86.78621749 303.24345439 -91.74497425 303.26830375 -96.70635986 303.28799438 C-97.40022797 303.2916098 -98.09409607 303.29522522 -98.80899048 303.2989502 C-109.8019171 303.32203622 -120.77917458 303.00158702 -130.83135986 297.97549438 C-128.86225336 281.9875252 -108.51378115 266.45175125 -97.37432861 256.26455688 C-93.75300077 252.93923672 -90.28475242 249.4737362 -86.83135986 245.97549438 C-81.83135986 240.97549438 -81.83135986 240.97549438 -80.17901611 239.42861938 C-74.38865189 233.90433317 -67.80696964 226.93421918 -67.45635986 218.60049438 C-67.52251131 212.02315064 -70.08446307 206.8455752 -72.83135986 200.97549438 C-75.99118642 194.01415341 -78.3673656 187.1754697 -80.26885986 179.78799438 C-82.76561265 169.9045847 -82.76561265 169.9045847 -88.83135986 161.97549438 C-94.12303087 159.36429024 -99.6675814 158.29276377 -105.45635986 157.41299438 C-109.40366286 156.79842319 -113.14338574 156.21320549 -116.92901611 154.90518188 C-125.20060596 152.25560129 -135.06731032 153.16339619 -142.83135986 156.97549438 C-149.06285319 161.00536846 -154.18572018 166.11270432 -159.33135986 171.41299438 C-160.75587402 172.87253758 -162.18294311 174.3295917 -163.61260986 175.78408813 C-164.23200439 176.42144897 -164.85139893 177.05880981 -165.48956299 177.71548462 C-167.46522625 179.62214797 -169.47893206 181.41246141 -171.55841064 183.20254517 C-176.05642763 187.11136868 -180.23770928 191.28990244 -184.41729736 195.53408813 C-186.02263747 197.15205433 -187.62810995 198.76988919 -189.23370361 200.38760376 C-191.73738819 202.91626089 -194.23943214 205.44650342 -196.73907471 207.97915649 C-199.16917772 210.43927537 -201.60530983 212.89329171 -204.04229736 215.34658813 C-205.17035294 216.49483315 -205.17035294 216.49483315 -206.32119751 217.66627502 C-207.36335922 218.71350487 -207.36335922 218.71350487 -208.42657471 219.78189087 C-209.03753998 220.40031357 -209.64850525 221.01873627 -210.27798462 221.65589905 C-211.83135986 222.97549438 -211.83135986 222.97549438 -213.83135986 222.97549438 C-214.63010852 220.83228712 -215.41997844 218.68577023 -216.20635986 216.53799438 C-216.64721924 215.34303345 -217.08807861 214.14807251 -217.54229736 212.91690063 C-226.54640842 186.37670568 -220.11246079 154.51093168 -208.04351807 129.88101196 C-195.65003488 106.14124932 -175.04216885 88.73726568 -150.83135986 77.97549438 C-149.76530518 77.49338501 -148.69925049 77.01127563 -147.60089111 76.51455688 C-144.37922918 75.16709372 -141.15902524 74.0344683 -137.83135986 72.97549438 C-136.60030518 72.58233032 -135.36925049 72.18916626 -134.10089111 71.78408813 C-121.19062759 68.20323927 -108.09063571 68.6903457 -94.81573486 69.03482056 C-79.01953011 69.38542691 -68.89408371 65.44379142 -57.42706299 54.51699829 C-54.14008618 51.34166604 -50.88498531 48.13507416 -47.64385986 44.91299438 C-46.64624634 43.92251099 -46.64624634 43.92251099 -45.628479 42.91201782 C-41.73037259 39.00083539 -38.03225261 34.97339076 -34.42340088 30.79458618 C-29.12315978 24.73844503 -23.24680089 19.1799782 -17.10870361 13.98330688 C-15.21296535 12.31193559 -13.39701711 10.60290649 -11.58526611 8.84268188 C-11.00816895 8.28886841 -10.43107178 7.73505493 -9.83648682 7.16445923 C-8.68081739 6.05235447 -7.53448849 4.93044777 -6.39849854 3.79824829 C-2.38812806 -0.03195579 -2.38812806 -0.03195579 0 0 Z " fill="#F79D22" transform="translate(330.83135986328125,497.0245056152344)"/>
<path d="M0 0 C3.60554665 1.97145387 6.41081987 4.48637965 9.32910156 7.36328125 C11.32854797 9.32182723 13.37706695 11.22227534 15.4296875 13.125 C28.97445505 25.7171809 28.97445505 25.7171809 29.2734375 29.02734375 C29.60889613 41.94250084 25.8899317 48.74665924 18.00634766 58.71386719 C9.84482376 69.16660788 4.04439889 80.55369813 -1.0625 92.75 C-10.6530696 115.52064638 -25.50185391 131.36059257 -48.52734375 140.78125 C-54.7710595 142.97252032 -60.89307086 143.98616067 -67.5078125 144.015625 C-74.18705647 144.10218108 -78.24777369 144.47676331 -83.3125 149.0625 C-84.8885357 150.69537633 -86.45136034 152.3411182 -88 154 C-89.54875977 155.36986013 -91.11089852 156.72477753 -92.6875 158.0625 C-96.14367321 161.13129127 -99.21226307 164.35285934 -102.1953125 167.87890625 C-104.20389542 170.23964331 -106.28499067 172.52361435 -108.375 174.8125 C-112.24448714 179.09960464 -115.90893662 183.5200836 -119.546875 188.00390625 C-126.12074845 196.03282494 -132.74883141 203.98340363 -140.20703125 211.2109375 C-142.69166322 213.69015633 -144.94172398 216.34952003 -147.2265625 219.01171875 C-149.03358156 221.03764981 -150.92705839 222.92230369 -152.875 224.8125 C-156.77373092 228.65136557 -160.15130614 232.80402284 -163.57421875 237.06640625 C-167.04294072 241.2612697 -170.73634379 245.22983459 -174.4375 249.21875 C-176.5465789 251.50787222 -178.59978712 253.82475164 -180.625 256.1875 C-185.91723339 262.26847972 -191.05684143 267.83410486 -198 272 C-212.52 257.48 -227.04 242.96 -242 228 C-240.28163051 224.56326101 -239.35696569 223.13095461 -236.69140625 220.64453125 C-236.03277588 220.02715088 -235.37414551 219.40977051 -234.69555664 218.77368164 C-233.99164795 218.1264917 -233.28773926 217.47930176 -232.5625 216.8125 C-231.83603271 216.13759521 -231.10956543 215.46269043 -230.36108398 214.76733398 C-226.52645401 211.23162767 -222.64445378 207.81294468 -218.5625 204.5625 C-204.64874068 193.40271963 -192.25122089 180.36336987 -179.72998047 167.69335938 C-174.32912603 162.24004476 -168.84193807 156.9834365 -163 152 C-161.02512026 150.22563429 -159.07658038 148.42521127 -157.125 146.625 C-151.7847981 141.71079711 -146.40114673 136.84718296 -141 132 C-140.154375 131.236875 -139.30875 130.47375 -138.4375 129.6875 C-137.591875 128.924375 -136.74625 128.16125 -135.875 127.375 C-135.05386719 126.63378906 -134.23273438 125.89257812 -133.38671875 125.12890625 C-131.1783386 123.15907453 -128.9380882 121.23373383 -126.6875 119.3125 C-118.28073804 111.93963416 -114.82567523 104.92148652 -114.0625 93.875 C-112.54266198 76.6833896 -106.66217927 61.38859583 -93.44921875 49.75390625 C-87.01831512 44.76395198 -80.15641748 40.54896635 -73.18896484 36.36083984 C-67.46359136 32.91851084 -61.83958431 29.34581587 -56.25 25.6875 C-54.57949034 24.5975593 -52.90891643 23.50771705 -51.23828125 22.41796875 C-50.38959473 21.86415527 -49.5409082 21.3103418 -48.66650391 20.73974609 C-47.34658447 19.87857178 -47.34658447 19.87857178 -46 19 C-45.05946777 18.38592285 -44.11893555 17.7718457 -43.14990234 17.13916016 C-40.25081139 15.25152659 -37.34492798 13.37476071 -34.4375 11.5 C-33.11830566 10.63701294 -33.11830566 10.63701294 -31.77246094 9.7565918 C-21.97834556 3.46578457 -11.99837695 -2.68929139 0 0 Z " fill="#F79D22" transform="translate(709,159)"/>
<path d="M0 0 C11.36104249 5.81566206 20.87255544 14.20019621 24.93505859 26.7409668 C26.45957814 33.97900104 25.73697869 41.19383219 22.36865234 47.79956055 C18.27092304 53.76085667 13.34673668 58.4696752 6.20458984 60.37768555 C-3.64288096 61.84259856 -15.12341393 62.58015262 -23.63134766 56.79956055 C-24.37384766 56.31358398 -25.11634766 55.82760742 -25.88134766 55.3269043 C-35.98827787 48.1052295 -43.65744412 37.8961645 -46.07275391 25.54174805 C-46.39360152 20.26328724 -44.65159605 15.99208864 -41.63134766 11.79956055 C-31.10972509 0.24934758 -15.12006517 -6.9669317 0 0 Z " fill="#2B5DA9" transform="translate(691.63134765625,684.200439453125)"/>
</svg>
