<?xml version="1.0" encoding="UTF-8"?>
<svg version="1.1" xmlns="http://www.w3.org/2000/svg" width="859" height="702">
<path d="M0 0 C283.47 0 566.94 0 859 0 C859 231.66 859 463.32 859 702 C575.53 702 292.06 702 0 702 C0 470.34 0 238.68 0 0 Z " fill="#2A5DAB" transform="translate(0,0)"/>
<path d="M0 0 C259.05 0 518.1 0 785 0 C785 101.64 785 203.28 785 308 C525.95 308 266.9 308 0 308 C0 206.36 0 104.72 0 0 Z " fill="#2A5DAA" transform="translate(37,361)"/>
<path d="M0 0 C283.47 0 566.94 0 859 0 C859 231.66 859 463.32 859 702 C575.53 702 292.06 702 0 702 C0 470.34 0 238.68 0 0 Z M36 32 C36 129.35 36 226.7 36 327 C295.71 327 555.42 327 823 327 C823 229.65 823 132.3 823 32 C563.29 32 303.58 32 36 32 Z M37 361 C37 462.64 37 564.28 37 669 C296.05 669 555.1 669 822 669 C822 567.36 822 465.72 822 361 C562.95 361 303.9 361 37 361 Z " fill="#FDFEFE" transform="translate(0,0)"/>
<path d="M0 0 C3.43963629 3.12960308 4.61585862 6.76195765 6.125 11.0625 C6.42140381 11.88669434 6.71780762 12.71088867 7.02319336 13.56005859 C10.37523454 22.93267258 13.60923942 32.34804275 16.84375 41.76171875 C18.17417811 45.62739085 19.52302509 49.48493696 20.90625 53.33203125 C21.18911865 54.12013184 21.4719873 54.90823242 21.76342773 55.72021484 C22.27977156 57.15297824 22.79985909 58.58440047 23.32446289 60.01416016 C24.33879862 62.83301482 25 64.97556455 25 68 C20.01155691 67.3900874 15.39844654 66.36525565 10.5625 64.9375 C9.32628906 64.57527344 8.09007812 64.21304688 6.81640625 63.83984375 C5.88699219 63.56269531 4.95757813 63.28554687 4 63 C3.7421875 64.26005859 3.484375 65.52011719 3.21875 66.81835938 C1.99604533 72.30503282 0.28139946 77.57920636 -1.5 82.90625 C-1.84811737 83.96035065 -2.19623474 85.01445129 -2.55490112 86.10049438 C-3.3072041 88.37844269 -4.06123964 90.65581939 -4.8168335 92.93267822 C-6.85018454 99.06336013 -8.86793908 105.19916195 -10.8828125 111.3359375 C-11.09146061 111.97114193 -11.30010872 112.60634636 -11.5150795 113.26079941 C-16.41275189 128.18045542 -21.15782949 143.14744471 -25.875 158.125 C-26.25672363 159.33615479 -26.63844727 160.54730957 -27.03173828 161.79516602 C-30.46203736 172.68350825 -33.88836598 183.57282886 -37.22998047 194.48876953 C-38.54485341 198.77690622 -39.89319423 203.05452726 -41.2421875 207.33203125 C-42.56301677 211.54005785 -43.78756766 215.75648682 -45 220 C-62.49 220 -79.98 220 -98 220 C-104.77027027 197.43243243 -104.77027027 197.43243243 -107.5 186.5 C-109.50547298 178.6112147 -111.59638313 170.77697517 -114 163 C-117.13615483 152.84689707 -119.76218046 142.57266373 -122.38671875 132.27734375 C-123.86024024 126.50017559 -125.41049027 120.74624661 -127 115 C-127.30292969 116.16273438 -127.60585938 117.32546875 -127.91796875 118.5234375 C-131.70744291 133.01890284 -131.70744291 133.01890284 -133.73388672 140.1496582 C-136.75152643 150.77760701 -139.4104741 161.4927172 -142.05786133 172.2175293 C-146.02026101 188.25318809 -150.45980338 204.10931184 -155 220 C-173.15 220 -191.3 220 -210 220 C-211.86220723 215.6548498 -213.39036971 212.05956935 -214.578125 207.62109375 C-214.84818359 206.62916016 -215.11824219 205.63722656 -215.39648438 204.61523438 C-215.81897461 203.04225586 -215.81897461 203.04225586 -216.25 201.4375 C-218.49699925 193.23044303 -220.86408408 185.09056007 -223.5 177 C-226.34730094 168.23643668 -228.9133185 159.41647394 -231.33984375 150.52734375 C-233.8114841 141.50952722 -236.50940771 132.56378098 -239.21194458 123.61315918 C-240.46874086 119.44567469 -241.71648226 115.27548595 -242.96484375 111.10546875 C-249.35575625 89.7615561 -249.35575625 89.7615561 -255.8125 68.4375 C-256.07820801 67.56416016 -256.34391602 66.69082031 -256.61767578 65.79101562 C-258.03401309 61.14297369 -259.46466701 56.49965117 -260.90625 51.859375 C-261.22489014 50.82756104 -261.54353027 49.79574707 -261.87182617 48.73266602 C-262.47460345 46.7813447 -263.08119042 44.8311937 -263.69262695 42.88256836 C-263.96550537 41.99706299 -264.23838379 41.11155762 -264.51953125 40.19921875 C-264.75776611 39.43440186 -264.99600098 38.66958496 -265.24145508 37.8815918 C-266.35930882 33.63504281 -267.13881175 29.30594125 -268 25 C-248.53 25 -229.06 25 -209 25 C-201.51810025 53.55337252 -201.51810025 53.55337252 -199.25 62.3125 C-198.97591309 63.3648584 -198.70182617 64.4172168 -198.41943359 65.50146484 C-195.9672317 74.97528801 -193.73366589 84.49452112 -191.609375 94.046875 C-189.2862331 104.28021906 -186.67912173 114.44743494 -184.125 124.625 C-183.74453522 126.14126984 -183.74453522 126.14126984 -183.35638428 127.68817139 C-181.90744012 133.45958514 -180.45509098 139.23013308 -179 145 C-178.82763824 144.35159149 -178.65527649 143.70318298 -178.47769165 143.03512573 C-178.24738251 142.16872467 -178.01707336 141.30232361 -177.77978516 140.40966797 C-177.53899231 139.50327576 -177.29819946 138.59688354 -177.05010986 137.6630249 C-176.56589959 135.84267268 -176.07936108 134.02293914 -175.59130859 132.20361328 C-173.97370076 126.05579156 -172.50715879 119.88541502 -171.09918213 113.68670654 C-167.11348126 96.14794313 -162.69089549 78.72808665 -158.24389648 61.30181885 C-157.00961061 56.46193317 -155.77972749 51.62092682 -154.54905701 46.78012085 C-152.70263711 39.51924373 -150.85083144 32.25976023 -149 25 C-132.17 25 -115.34 25 -98 25 C-96.80375 30.135625 -95.6075 35.27125 -94.375 40.5625 C-91.97290971 50.8248206 -89.52607183 61.06461447 -86.8125 71.25 C-84.18442583 81.12847732 -81.88362894 91.06061955 -79.66064453 101.03710938 C-75.36798018 121.09522261 -75.36798018 121.09522261 -69.6640625 140.77734375 C-69 143 -69 143 -69 146 C-68.34 146 -67.68 146 -67 146 C-66.95319092 145.44530029 -66.90638184 144.89060059 -66.8581543 144.3190918 C-66.34212257 138.94200709 -65.34503003 133.98374531 -63.8125 128.8125 C-63.35739168 127.22545561 -62.90299603 125.63820673 -62.44921875 124.05078125 C-62.21122559 123.22529785 -61.97323242 122.39981445 -61.72802734 121.54931641 C-60.48881361 117.20999053 -59.30812503 112.85489029 -58.125 108.5 C-57.75242065 107.13258667 -57.75242065 107.13258667 -57.37231445 105.73754883 C-55.10366152 97.40382439 -52.86065239 89.06322589 -50.61914062 80.72216797 C-48.38836741 72.42632481 -46.13493321 64.13683846 -43.86523438 55.8515625 C-43.5181543 54.583125 -43.5181543 54.583125 -43.1640625 53.2890625 C-42.96248535 52.55381348 -42.7609082 51.81856445 -42.55322266 51.06103516 C-42.0123384 49.04596679 -41.49969866 47.0256356 -41 45 C-41.69609375 44.88527344 -42.3921875 44.77054688 -43.109375 44.65234375 C-46.33319102 43.92480689 -49.19847022 42.82896002 -52.25 41.5625 C-53.30703125 41.13066406 -54.3640625 40.69882813 -55.453125 40.25390625 C-58 39 -58 39 -59 37 C-51.05859375 31.984375 -43.1171875 26.96875 -35.17578125 21.953125 C-34.40137695 21.46400635 -33.62697266 20.9748877 -32.82910156 20.47094727 C-31.27514243 19.48954226 -29.72110584 18.50825989 -28.16699219 17.52709961 C-23.99359495 14.89206826 -19.82188158 12.25441603 -15.65234375 9.61328125 C-14.77964844 9.06091797 -13.90695312 8.50855469 -13.0078125 7.93945312 C-11.3263376 6.87511529 -9.64532878 5.81004069 -7.96484375 4.74414062 C-6.835625 4.02967773 -6.835625 4.02967773 -5.68359375 3.30078125 C-5.01900146 2.87966064 -4.35440918 2.45854004 -3.66967773 2.0246582 C-2 1 -2 1 0 0 Z " fill="#FDFEFE" transform="translate(765,59)"/>
<path d="M0 0 C13.48352242 11.90642387 22.69985388 28.79690511 26.47363281 46.30126953 C26.75335938 47.57615234 27.03308594 48.85103516 27.32128906 50.16455078 C29.32659535 60.31849435 29.75877898 70.33715665 29.78613281 80.67626953 C29.79422974 82.54665894 29.79422974 82.54665894 29.80249023 84.45483398 C29.60091495 110.89274668 22.27040136 136.21209268 3.47363281 155.30126953 C-19.42259893 176.60083239 -48.45168477 182.27165363 -78.83642578 181.44189453 C-85.23402462 181.10744028 -91.30673938 179.80886032 -97.52636719 178.30126953 C-98.76515625 178.03443359 -100.00394531 177.76759766 -101.28027344 177.49267578 C-123.52500045 172.27363138 -142.26162579 159.33251191 -154.71386719 140.11376953 C-158.85114841 133.13313768 -161.75879313 125.89904359 -164.52636719 118.30126953 C-164.83316406 117.53685547 -165.13996094 116.77244141 -165.45605469 115.98486328 C-173.32220376 95.26526444 -172.82404161 69.53889545 -167.52636719 48.30126953 C-167.36007812 47.60243652 -167.19378906 46.90360352 -167.02246094 46.18359375 C-163.17974208 30.38930765 -156.48999208 17.39143203 -145.52636719 5.30126953 C-144.99914062 4.68123047 -144.47191406 4.06119141 -143.92871094 3.42236328 C-109.64091987 -34.3731302 -37.04167274 -31.41494328 0 0 Z " fill="#FDFEFE" transform="translate(465.5263671875,102.69873046875)"/>
<path d="M0 0 C66.33 0 132.66 0 201 0 C201 18.48 201 36.96 201 56 C162.39 56 123.78 56 84 56 C84 68.87 84 81.74 84 95 C118.65 95 153.3 95 189 95 C189 111.5 189 128 189 145 C154.35 145 119.7 145 84 145 C84 173.38 84 201.76 84 231 C56.28 231 28.56 231 0 231 C0 154.77 0 78.54 0 0 Z " fill="#FCFDFE" transform="translate(97,400)"/>
<path d="M0 0 C17.82 0 35.64 0 54 0 C60.32339002 8.62280457 66.61791529 17.20721315 72.6875 26 C74.06375881 27.98570707 75.4400622 29.97138325 76.81640625 31.95703125 C77.50750488 32.95557129 78.19860352 33.95411133 78.91064453 34.98291016 C82.30838209 39.88934165 85.71657777 44.78848758 89.125 49.6875 C89.78830322 50.64116455 90.45160645 51.5948291 91.13500977 52.57739258 C95.4557016 58.7872938 99.78631296 64.99016044 104.125 71.1875 C104.68477539 71.98808838 105.24455078 72.78867676 105.82128906 73.61352539 C108.86186991 77.95927776 111.91571515 82.29511514 114.984375 86.62109375 C115.96059814 88.00228394 115.96059814 88.00228394 116.95654297 89.41137695 C118.21212986 91.18738209 119.47143002 92.96076929 120.73486328 94.73120117 C121.29415527 95.52373291 121.85344727 96.31626465 122.4296875 97.1328125 C122.92710449 97.83293457 123.42452148 98.53305664 123.93701172 99.25439453 C125 101 125 101 125 103 C125.66 103 126.32 103 127 103 C126.8934182 102.17782234 126.8934182 102.17782234 126.78468323 101.33903503 C125.65941929 91.18392401 125.87487197 81.00227274 125.90234375 70.80078125 C125.90421177 68.75384048 125.90563386 66.70689926 125.90663147 64.65995789 C125.91042638 59.30562071 125.92023042 53.9513112 125.93133545 48.59698486 C125.94342643 42.15488507 125.94796623 35.71277595 125.95378876 29.27066803 C125.96344412 19.51375951 125.98262177 9.75691157 126 0 C143.16 0 160.32 0 178 0 C178 64.35 178 128.7 178 195 C161.17 195 144.34 195 127 195 C119.62458698 184.78788967 112.27878738 174.58038206 105.03125 164.28125 C101.88858373 159.82913946 98.69755746 155.4127812 95.5 151 C91.29314018 145.1943336 87.12409743 139.36474815 83 133.5 C78.84815235 127.5989594 74.66175602 121.72444977 70.4375 115.875 C69.63372925 114.76125 69.63372925 114.76125 68.8137207 113.625 C66.14330003 109.93328611 63.45479371 106.25661363 60.734375 102.6015625 C59.96395874 101.56346436 59.96395874 101.56346436 59.17797852 100.50439453 C58.20616698 99.19750302 57.23027758 97.89363099 56.24975586 96.59326172 C53 92.22161717 53 92.22161717 53 90 C52.34 90 51.68 90 51 90 C51 124.65 51 159.3 51 195 C34.17 195 17.34 195 0 195 C0 130.65 0 66.3 0 0 Z " fill="#FEFEFE" transform="translate(93,84)"/>
<path d="M0 0 C29.7 0 59.4 0 90 0 C90 76.23 90 152.46 90 231 C60.3 231 30.6 231 0 231 C0 154.77 0 78.54 0 0 Z " fill="#FDFEFE" transform="translate(360,400)"/>
<path d="M0 0 C12.36894316 7.38985267 19.46386275 16.39158824 24 30 C24.06901541 31.97158791 24.0849442 33.94522753 24.0703125 35.91796875 C24.08578125 37.67657227 24.08578125 37.67657227 24.1015625 39.47070312 C24.11706411 41.929 24.10962284 44.38755917 24.078125 46.84570312 C24.19424524 54.75355892 24.19424524 54.75355892 28.06640625 61.40234375 C29.3482345 62.63290538 30.66021187 63.83280963 32 65 C33.25699209 66.21564797 34.51349886 67.43179797 35.76953125 68.6484375 C37.11439649 69.89364618 38.46216898 71.13572066 39.8125 72.375 C46.96798119 79.01614377 53.9145044 85.83546212 60.7590332 92.79638672 C65.331137 97.422726 70.04426441 101.78797495 75 106 C75.57097412 106.48718506 76.14194824 106.97437012 76.73022461 107.47631836 C77.82624437 108.40951013 78.92315544 109.34165617 80.02099609 110.27270508 C85.98091699 115.33243869 91.79799423 120.5163331 97.51953125 125.84375 C100.9763798 129.0621952 104.48040445 132.20944872 108.05078125 135.30078125 C112.08095661 138.81406038 116.03146612 142.41746334 120 146 C121.66640851 147.50028679 123.33307353 149.00028872 125 150.5 C127.52500493 152.7717129 130.04913304 155.04435414 132.5703125 157.3203125 C137.01507498 161.33011351 141.48150231 165.31065789 145.9921875 169.24609375 C151.47532569 174.03583898 156.85107573 178.85107573 162 184 C163.17949219 185.00160156 163.17949219 185.00160156 164.3828125 186.0234375 C170.73847769 191.45262089 175.34948566 195.55367249 176.3671875 204.07421875 C176.71030023 212.76304409 174.77685155 218.47476044 170.3125 225.75 C164.93626339 230.98093292 158.30082857 234.14882164 150.875 234.3125 C149.77929688 234.34988281 148.68359375 234.38726563 147.5546875 234.42578125 C137.31398382 233.19914751 131.23562068 225.74616669 124.4375 218.75 C123.42601106 217.7269929 122.41364631 216.70485097 121.40039062 215.68359375 C117.31878776 211.55120332 113.28160176 207.4001871 109.50390625 202.984375 C104.81755954 197.52458087 99.61830724 192.54969284 94.5 187.5 C82.86134751 176.01737158 82.86134751 176.01737158 77.55664062 169.81054688 C74.96045983 166.7908987 72.2265507 163.90159542 69.5 161 C68.60595459 160.04613403 68.60595459 160.04613403 67.69384766 159.07299805 C66.43597807 157.73104101 65.17767114 156.38949378 63.91894531 155.04833984 C62.00124164 153.00132536 60.0897361 150.94868837 58.1796875 148.89453125 C51.8974757 142.1488776 45.55806205 135.49312025 38.99780273 129.01708984 C36.36643048 126.40770928 33.84480415 123.75455804 31.4375 120.9375 C24.51627606 112.85994567 16.89513533 105.69218268 8.578125 99.07421875 C5.53525449 96.62609111 2.63650986 94.04372283 -0.24609375 91.41015625 C-4.13881232 88.28037584 -7.15268553 87.75397969 -12.12890625 87.7265625 C-13.32966797 87.7059375 -14.53042969 87.6853125 -15.76757812 87.6640625 C-18.27011611 87.63830297 -20.77274223 87.61990692 -23.27539062 87.609375 C-37.30978671 87.34020171 -48.18324278 83.0527348 -58.0703125 72.8671875 C-65.28660826 64.15140171 -69.17846051 54.49512313 -69.1875 43.25 C-69.19974609 42.46367187 -69.21199219 41.67734375 -69.22460938 40.8671875 C-69.23709648 35.85569445 -68.60673771 31.75035497 -67 27 C-62.45765156 30.7164669 -58.29536132 34.68741245 -54.1875 38.875 C-45.7829107 48.38660933 -45.7829107 48.38660933 -34.890625 53.31640625 C-31.07219975 52.89844349 -29.13000316 51.19100221 -26 49 C-24.65430263 48.55674268 -23.29932309 48.14091732 -21.9375 47.75 C-17.64429238 46.26958358 -16.07346363 43.80945354 -13.91015625 39.9375 C-11.72434327 35.28443888 -11.39060498 31.05797868 -12 26 C-15.35212938 19.29574125 -21.43249845 14.31187513 -27.0625 9.5 C-30.72738716 6.33519491 -34.22133264 2.9890717 -37 -1 C-37 -1.66 -37 -2.32 -37 -3 C-24.92789676 -7.69680267 -11.3474514 -5.68060295 0 0 Z " fill="#F69D23" transform="translate(583,399)"/>
<path d="M0 0 C10.96377211 6.71736956 15.72595566 17.21824196 18.83984375 29.30859375 C22.98466686 47.28321197 22.72691003 70.07707143 17.58984375 87.74609375 C17.24953125 88.97972656 16.90921875 90.21335937 16.55859375 91.484375 C13.78847483 100.34688384 10.08323995 107.29892396 2.0625 112.33203125 C-0.39062953 113.60839639 -2.84806821 114.70905811 -5.41015625 115.74609375 C-6.35890625 116.17921875 -7.30765625 116.61234375 -8.28515625 117.05859375 C-17.40447935 119.06484483 -26.16772789 118.19362108 -34.41015625 113.74609375 C-45.66359073 106.08979815 -51.44972805 94.74274909 -54.33203125 81.67504883 C-55.73686937 73.84130413 -55.77484601 65.93118451 -55.78515625 57.99609375 C-55.78700928 56.70590332 -55.7888623 55.41571289 -55.79077148 54.08642578 C-55.57960162 36.00890075 -53.52370967 18.38772099 -40.6015625 4.8515625 C-29.1569718 -6.0864266 -13.8792355 -7.22080162 0 0 Z " fill="#2B5DAB" transform="translate(412.41015625,125.25390625)"/>
<path d="M0 0 C4.05485012 1.62727937 6.84312954 4.50294951 9.89453125 7.5234375 C10.72195076 8.3373143 10.72195076 8.3373143 11.56608582 9.16763306 C12.72604491 10.3131221 13.8832449 11.46141101 15.0378418 12.61230469 C16.81178562 14.37429044 18.60353036 16.11676416 20.39648438 17.859375 C21.52197714 18.97541018 22.64636557 20.0925604 23.76953125 21.2109375 C24.3089888 21.73086273 24.84844635 22.25078796 25.4042511 22.78646851 C26.88208008 24.28271484 26.88208008 24.28271484 29 27 C28.97655302 30.14828937 27.53596323 31.87743675 25.48828125 34.171875 C24.98014893 34.75001953 24.4720166 35.32816406 23.94848633 35.92382812 C23.40861084 36.52646484 22.86873535 37.12910156 22.3125 37.75 C21.2172686 39.00391595 20.12350473 40.2591153 19.03125 41.515625 C18.50660156 42.11697266 17.98195313 42.71832031 17.44140625 43.33789062 C15.68818381 45.35956041 13.97232955 47.4008038 12.3125 49.5 C11.87550781 50.0465625 11.43851563 50.593125 10.98828125 51.15625 C8.50410061 55.79076883 8.98434473 60.89094064 9.16699219 65.97998047 C9.56000996 78.20745689 7.76895633 88.0460247 0 98 C-1.051875 99.4540625 -1.051875 99.4540625 -2.125 100.9375 C-9.13189051 109.10149169 -20.24835946 115.10402995 -31 116 C-37.40322087 116.33644042 -42.84870097 115.82260712 -49 114 C-48.42078346 110.19618991 -46.769299 108.29113406 -44.1875 105.5 C-43.38699219 104.63375 -42.58648438 103.7675 -41.76171875 102.875 C-38.20061748 99.1678281 -34.57556641 95.52840164 -30.89916992 91.93554688 C-26.97606177 88.13829478 -26.97606177 88.13829478 -25.6875 83 C-25.73182379 78.74491569 -27.31177974 75.30619166 -28.9765625 71.4453125 C-30.27423222 68.3447734 -31.15250972 65.24871272 -32 62 C-33.17369141 61.80083984 -33.17369141 61.80083984 -34.37109375 61.59765625 C-35.38300781 61.42105469 -36.39492188 61.24445312 -37.4375 61.0625 C-38.44683594 60.88847656 -39.45617187 60.71445312 -40.49609375 60.53515625 C-43 60 -43 60 -44 59 C-49.86126765 58.1452318 -52.70058732 59.72493749 -57.47216797 63.02807617 C-62.22734191 66.73751599 -66.36518209 71.05758275 -70.5625 75.375 C-71.47580078 76.30183594 -72.38910156 77.22867188 -73.33007812 78.18359375 C-75.56044079 80.44898829 -77.78343911 82.72111331 -80 85 C-83.81648897 81.18351103 -84.16291349 76.063545 -84.375 70.875 C-84.12098075 59.30124772 -79.58789049 48.04226913 -71.7421875 39.55859375 C-62.30301868 30.57806793 -51.9972267 25.85157493 -38.94824219 25.82763672 C-30.26443827 26.02764639 -30.26443827 26.02764639 -22.75 22.375 C-21.47542421 20.93809616 -20.23098163 19.47442203 -19 18 C-17.12602013 16.07336817 -15.21987878 14.18209483 -13.30957031 12.29150391 C-11.95680554 10.95060549 -10.61209586 9.60152199 -9.27636719 8.24365234 C-8.65407227 7.61152832 -8.03177734 6.9794043 -7.390625 6.328125 C-6.5557959 5.47589355 -6.5557959 5.47589355 -5.70410156 4.60644531 C-3.90192376 2.90754417 -2.00611735 1.44953209 0 0 Z " fill="#F59D23" transform="translate(596,522)"/>
<path d="M0 0 C2.90458646 2.10735832 5.46006439 4.47089567 8 7 C8.57363281 7.44730469 9.14726563 7.89460938 9.73828125 8.35546875 C11 10 11 10 11.4453125 12.7421875 C10.88152062 16.86677021 9.11341562 19.71651358 6.875 23.125 C3.91610092 27.79794828 1.24909518 32.39809445 -1.0625 37.4375 C-5.00394793 45.48281817 -10.35786956 50.9868771 -18.71484375 54.35546875 C-21.05459308 55.01539805 -23.07744488 55.16995035 -25.5 55.25 C-31.6119718 55.73810886 -35.00559342 59.67098345 -39 64 C-41.24156351 66.6335309 -43.41122909 69.31176838 -45.5625 72.01953125 C-49.62321516 76.98479674 -54.03325193 81.61931737 -58.41650391 86.29882812 C-60.05417083 88.05819648 -61.6753942 89.83152613 -63.29296875 91.609375 C-63.83010498 92.19799316 -64.36724121 92.78661133 -64.9206543 93.39306641 C-65.94663854 94.51817573 -66.97037219 95.64534298 -67.99145508 96.77490234 C-70.54116018 99.55999869 -72.94826186 101.71119639 -76 104 C-81.28 98.72 -86.56 93.44 -92 88 C-90.22388896 84.44777792 -89.19865779 82.99486637 -86.40234375 80.42578125 C-85.68747803 79.76247803 -84.9726123 79.0991748 -84.23608398 78.41577148 C-83.47755127 77.72169189 -82.71901855 77.0276123 -81.9375 76.3125 C-80.38439815 74.87349433 -78.83230529 73.43339885 -77.28125 71.9921875 C-76.16556641 70.95723145 -76.16556641 70.95723145 -75.02734375 69.90136719 C-72.60866863 67.63298547 -70.26158156 65.30249849 -67.9375 62.9375 C-65.3891619 60.35498878 -62.79778568 57.88391499 -60.0625 55.5 C-59.42183594 54.93925781 -58.78117188 54.37851562 -58.12109375 53.80078125 C-56.55752276 52.47332963 -54.96102603 51.18442839 -53.34765625 49.91796875 C-46.850181 44.59507296 -44.91726852 41.21553547 -44 33 C-41.37228487 22.67550226 -34.58711277 17.23749972 -25.75 11.9375 C-24.48410034 11.1626123 -24.48410034 11.1626123 -23.19262695 10.37207031 C-21.53636759 9.35976101 -19.87736742 8.35191896 -18.21533203 7.34912109 C-16.37366472 6.22755909 -14.55646085 5.06594526 -12.74609375 3.89453125 C-4.64469083 -1.31263002 -4.64469083 -1.31263002 0 0 Z " fill="#F59D23" transform="translate(741,393)"/>
<path d="M0 0 C4.57362601 2.10754086 8.09460643 5.29255706 10 10 C10.48807148 13.35549146 10.73108696 15.74790855 8.98046875 18.74609375 C5.72260492 22.85041163 3.45388883 23.82750472 -1.6875 24.4375 C-7.00560964 24.36881593 -10.3506519 21.65771816 -14 18 C-16.48059521 14.46703107 -17 12.6910362 -17 8.375 C-15.80892484 4.35512134 -14.48912663 3.21261689 -11 1 C-7.49787809 -0.75106095 -3.82137501 -0.55663237 0 0 Z " fill="#2F5EA7" transform="translate(734,593)"/>
</svg>
